<?xml version="1.0" encoding="utf-8"?>
<!-- Generator: Adobe Illustrator 19.2.0, SVG Export Plug-In . SVG Version: 6.00 Build 0)  -->
<svg version="1.1" id="レイヤー_1" xmlns="http://www.w3.org/2000/svg" xmlns:xlink="http://www.w3.org/1999/xlink" x="0px"
	 y="0px" viewBox="0 0 40 40" style="enable-background:new 0 0 40 40;" xml:space="preserve">
<style type="text/css">
	.st0{fill:#757575;}
</style>
<g>
	<g>
		<polygon class="st0" points="9.7,8.3 9.7,13.2 14,10.8 		"/>
		<polygon class="st0" points="9.7,14.5 9.7,19.4 14,16.9 		"/>
		<polygon class="st0" points="9.7,26.8 9.7,31.7 14,29.2 		"/>
		<polygon class="st0" points="10.1,32.3 14.3,34.7 14.3,29.8 		"/>
		<polygon class="st0" points="10.1,20 14.3,22.5 14.3,17.5 		"/>
		<polygon class="st0" points="10.1,13.9 14.3,16.3 14.3,11.4 		"/>
		<polygon class="st0" points="10.1,7.7 14.3,10.2 14.3,5.3 		"/>
		<polygon class="st0" points="15,5.3 15,10.2 19.3,7.7 		"/>
		<polygon class="st0" points="15,11.4 15,16.3 19.3,13.9 		"/>
		<polygon class="st0" points="15,17.5 15,22.5 19.3,20 		"/>
		<polygon class="st0" points="15,23.7 15,28.6 19.3,26.1 		"/>
		<polygon class="st0" points="15,29.8 15,34.7 19.3,32.3 		"/>
		<polygon class="st0" points="15.4,35.4 19.6,37.8 19.6,32.9 		"/>
		<polygon class="st0" points="15.4,29.2 19.6,31.7 19.6,26.8 		"/>
		<polygon class="st0" points="15.4,23.1 19.6,25.5 19.6,20.6 		"/>
		<polygon class="st0" points="15.4,16.9 19.6,19.4 19.6,14.5 		"/>
		<polygon class="st0" points="15.4,4.6 19.6,7.1 19.6,2.2 		"/>
		<polygon class="st0" points="4.4,11.4 4.4,16.3 8.7,13.9 		"/>
		<polygon class="st0" points="4.4,17.5 4.4,22.5 8.7,20 		"/>
		<polygon class="st0" points="4.4,23.7 4.4,28.6 8.7,26.1 		"/>
		<polygon class="st0" points="4.8,29.2 9,31.7 9,26.8 		"/>
		<polygon class="st0" points="4.8,23.1 9,25.5 9,20.6 		"/>
		<polygon class="st0" points="4.8,16.9 9,19.4 9,14.5 		"/>
		<polygon class="st0" points="4.8,10.8 9,13.2 9,8.3 		"/>
		<polygon class="st0" points="20.4,2.2 20.4,7.1 24.6,4.6 		"/>
		<polygon class="st0" points="20.4,14.5 20.4,19.4 24.6,16.9 		"/>
		<polygon class="st0" points="20.4,20.6 20.4,25.5 24.6,23.1 		"/>
		<polygon class="st0" points="20.4,26.8 20.4,31.7 24.6,29.2 		"/>
		<polygon class="st0" points="20.4,32.9 20.4,37.8 24.6,35.4 		"/>
		<polygon class="st0" points="20.7,32.3 25,34.7 25,29.8 		"/>
		<polygon class="st0" points="20.7,26.1 25,28.6 25,23.7 		"/>
		<polygon class="st0" points="20.7,20 25,22.5 25,17.5 		"/>
		<polygon class="st0" points="20.7,13.9 25,16.3 25,11.4 		"/>
		<polygon class="st0" points="20.7,7.7 25,10.2 25,5.3 		"/>
		<polygon class="st0" points="25.7,5.3 25.7,10.2 29.9,7.7 		"/>
		<polygon class="st0" points="25.7,11.4 25.7,16.3 29.9,13.9 		"/>
		<polygon class="st0" points="25.7,17.5 25.7,22.5 29.9,20 		"/>
		<polygon class="st0" points="25.7,29.8 25.7,34.7 29.9,32.3 		"/>
		<polygon class="st0" points="26,29.2 30.3,31.7 30.3,26.8 		"/>
		<polygon class="st0" points="26,16.9 30.3,19.4 30.3,14.5 		"/>
		<polygon class="st0" points="26,10.8 30.3,13.2 30.3,8.3 		"/>
		<polygon class="st0" points="31,8.3 31,13.2 35.2,10.8 		"/>
		<polygon class="st0" points="31,14.5 31,19.4 35.2,16.9 		"/>
		<polygon class="st0" points="31,20.6 31,25.5 35.2,23.1 		"/>
		<polygon class="st0" points="31,26.8 31,31.7 35.2,29.2 		"/>
		<polygon class="st0" points="31.3,26.1 35.6,28.6 35.6,23.7 		"/>
		<polygon class="st0" points="31.3,20 35.6,22.5 35.6,17.5 		"/>
		<polygon class="st0" points="31.3,13.9 35.6,16.3 35.6,11.4 		"/>
	</g>
</g>
</svg>
