<?xml version="1.0" encoding="utf-8"?>
<!-- Generator: Adobe Illustrator 19.2.0, SVG Export Plug-In . SVG Version: 6.00 Build 0)  -->
<svg version="1.1" id="レイヤー_1" xmlns="http://www.w3.org/2000/svg" xmlns:xlink="http://www.w3.org/1999/xlink" x="0px"
	 y="0px" viewBox="0 0 40 40" style="enable-background:new 0 0 40 40;" xml:space="preserve">
<style type="text/css">
	.st0{fill:#757575;}
	.st1{fill:#FFFFFF;}
</style>
<path class="st0" d="M9.7,33.9h20.3l0-12.2c0-0.3,0.1-0.5,0.4-0.6l7.1-3.7l-7.7-9.8c-0.2,0-0.2,0-0.3-0.2c-0.6-0.8-1.5-1.2-2.6-1.2
	h-1.6c-0.7,2.3-2.9,3.9-5.3,3.9c-2.5,0-4.6-1.6-5.3-3.9H13c-1.1,0-2.2,0.5-2.8,1.3c0,0-0.1,0.1-0.1,0.1l-7.6,9.7l6.9,3.6
	c0.2,0.1,0.4,0.4,0.4,0.6L9.7,33.9L9.7,33.9L9.7,33.9z"/>
<path class="st0" d="M30.8,35.3H9c-0.4,0-0.7-0.3-0.7-0.7l0-12.6l-6.8-3.6C1.2,18.2,1,18,1,17.6c-0.1-0.3,0-0.7,0.2-1l7.9-10
	c0,0,0.1-0.1,0.2-0.2C10,5.4,11.4,4.7,13,4.7h2.2c0.3,0,0.6,0.2,0.7,0.6c0.4,2,2.1,3.4,4.1,3.4c2,0,3.7-1.4,4.1-3.4
	c0.1-0.3,0.4-0.6,0.7-0.6h2.2c1.4,0,2.7,0.6,3.6,1.6c0.2,0.1,0.3,0.2,0.4,0.3l7.9,10c0.2,0.3,0.3,0.6,0.2,1
	c-0.1,0.3-0.3,0.6-0.6,0.8l-7,3.7v12.1c0,0,0,0.2,0,0.2l0,0.2C31.5,35,31.2,35.3,30.8,35.3z"/>
<path class="st0" d="M9,22.6L9,22.6c-0.4,0-0.7-0.3-0.7-0.7v-4.3c0-0.4,0.3-0.7,0.7-0.7l0,0c0.4,0,0.7,0.3,0.7,0.7v4.3
	C9.7,22.3,9.4,22.6,9,22.6z"/>
<path class="st1" d="M28.2,31.1L28.2,31.1c0,0.4-0.3,0.7-0.7,0.7H12.4c-0.4,0-0.7-0.3-0.7-0.7l0,0c0-0.4,0.3-0.7,0.7-0.7h15.1
	C27.9,30.4,28.2,30.7,28.2,31.1z"/>
<path class="st0" d="M30.7,22.6L30.7,22.6c-0.4,0-0.7-0.3-0.7-0.7v-4.3c0-0.4,0.3-0.7,0.7-0.7l0,0c0.4,0,0.7,0.3,0.7,0.7v4.3
	C31.4,22.3,31.1,22.6,30.7,22.6z"/>
<path class="st1" d="M19.9,13.5c-0.2,0-0.4,0-0.6,0c-2.9-0.3-5.5-2.8-6-4.9c-0.1-0.4,0.1-0.8,0.5-0.9c0.4-0.1,0.8,0.1,0.9,0.5
	C15,9.6,17,11.8,19.5,12c2.2,0.3,4.1-1.1,5.5-4c0.2-0.3,0.6-0.5,0.9-0.3c0.3,0.2,0.5,0.6,0.3,0.9C24.2,12.7,21.6,13.5,19.9,13.5z"/>
</svg>
