<?xml version="1.0" encoding="utf-8"?>
<!-- Generator: Adobe Illustrator 19.2.0, SVG Export Plug-In . SVG Version: 6.00 Build 0)  -->
<svg version="1.1" id="レイヤー_1" xmlns="http://www.w3.org/2000/svg" xmlns:xlink="http://www.w3.org/1999/xlink" x="0px"
	 y="0px" viewBox="0 0 40 40" style="enable-background:new 0 0 40 40;" xml:space="preserve">
<style type="text/css">
	.st0{fill:#757575;}
</style>
<path class="st0" d="M36.7,20.7c0-0.9-1.6-1.7-4.2-2.3L29.7,4.1c0-1.6-1.3-2.8-2.8-2.8H13.1c-1.6,0-2.8,1.3-2.8,2.8L7.6,18.5
	c-2.6,0.6-4.2,1.4-4.2,2.3c0,1.1,2.7,2.2,7,2.8L6.9,37.8c-0.1,0.4,0.2,0.8,0.6,0.9c0.1,0,0.1,0,0.2,0c0.4,0,0.7-0.2,0.8-0.6l0.9-4
	L20,30.9l10.7,3.3l0.9,4c0.1,0.4,0.4,0.6,0.8,0.6c0.1,0,0.1,0,0.2,0c0.4-0.1,0.7-0.5,0.6-0.9l-3.4-14.3
	C33.9,22.9,36.7,21.9,36.7,20.7z M9.8,32.4l1-4.3l6.5,2L9.8,32.4z M22.7,30.1l6.5-2l1,4.3L22.7,30.1z M28.9,26.5L20,29.2l-8.8-2.7
	l0.7-2.8c2.4,0.3,5.2,0.4,8.1,0.4c3,0,5.8-0.2,8.2-0.4L28.9,26.5z"/>
</svg>
