<?xml version="1.0" encoding="utf-8"?>
<!-- Generator: Adobe Illustrator 19.2.0, SVG Export Plug-In . SVG Version: 6.00 Build 0)  -->
<svg version="1.1" id="レイヤー_1" xmlns="http://www.w3.org/2000/svg" xmlns:xlink="http://www.w3.org/1999/xlink" x="0px"
	 y="0px" viewBox="0 0 40 40" style="enable-background:new 0 0 40 40;" xml:space="preserve">
<style type="text/css">
	.st0{fill:#757575;}
</style>
<g>
	<g>
		<path class="st0" d="M20.5,5.6C12.5,5.6,6.1,12,6.1,20s6.4,14.4,14.4,14.4c7.9,0,14.4-6.4,14.4-14.4C34.9,12.1,28.5,5.6,20.5,5.6z
			 M20.4,29.2c-5,0-9-4-9-9s4-9,9-9s9,4,9,9S25.4,29.2,20.4,29.2z"/>
		<path class="st0" d="M4.6,8.2H4l0.2,6.3H3.5V8.2H2.9v6.4H2.3V8.2H1.7v6.4H1l0.2-6.4H0.7L0,13.5c0,0,0,0.2,0,0.3
			c0,0.8,0.4,1.6,1,2.1c2,2.2,0.6,4.5,0.6,5.1s0,9.8,0,9.8l0,0c0,0.6,0.5,1,1,1c0.6,0,1-0.5,1-1l0,0l0,0c0,0,0-9.1,0-9.8
			c0-0.6-1.1-3.3,0.8-5.2l0,0c0.5-0.4,0.8-1.1,0.8-1.7v-0.2L4.6,8.2z"/>
		<path class="st0" d="M40,23.4c0-0.6,0-15.3,0-15.3h-0.3c0,0-2.7,1.5-2.7,13c2.1,0.6,1.2,2.9,1.1,3.2c0,0.6,0,6.6,0,6.6l0,0l0,0
			c0,0.5,0.4,1,1,1c0.5,0,1-0.4,1-1l0,0l0,0C40,30.8,40,24.1,40,23.4z"/>
	</g>
</g>
</svg>
