<?xml version="1.0" encoding="utf-8"?>
<!-- Generator: Adobe Illustrator 19.2.0, SVG Export Plug-In . SVG Version: 6.00 Build 0)  -->
<svg version="1.1" id="レイヤー_1" xmlns="http://www.w3.org/2000/svg" xmlns:xlink="http://www.w3.org/1999/xlink" x="0px"
	 y="0px" viewBox="0 0 40 40" style="enable-background:new 0 0 40 40;" xml:space="preserve">
<style type="text/css">
	.st0{fill:#757575;}
</style>
<g>
	<g>
		<path class="st0" d="M31.8,35.4v-2.9H8.2v5.8c0,0.3,0.3,0.5,0.7,0.5l22.4-2.9C31.6,35.9,31.8,35.7,31.8,35.4z"/>
		<path class="st0" d="M20,5.6c-0.5,0-0.9,0.3-0.9,0.7v1.2L4.7,13.9c-1.2,0.5-1.8,1.7-1.5,2.8c0.3,1.1,1.5,1.9,2.9,1.9h2.2V31h23.6
			V18.6H34c1.4,0,2.5-0.8,2.9-1.9c0.3-1.1-0.3-2.3-1.5-2.8L20.9,7.6V7c1.5-0.3,2.6-1.5,2.6-2.9c0-1.6-1.6-3-3.5-3s-3.5,1.3-3.5,3
			c0,0.4,0.4,0.7,0.9,0.7c0.5,0,0.9-0.3,0.9-0.7c0-0.8,0.8-1.5,1.8-1.5c1,0,1.8,0.7,1.8,1.5C21.8,5,21,5.6,20,5.6z M35.2,16.4
			c-0.1,0.4-0.5,0.8-1.2,0.8h-2.2c-0.1-0.8-1-1.5-2-1.5H10.2c-1,0-1.9,0.6-2,1.5H6c-0.7,0-1.1-0.4-1.2-0.8c-0.1-0.4,0-0.9,0.6-1.2
			L20,8.9l14.5,6.4C35.2,15.5,35.3,16,35.2,16.4z"/>
	</g>
</g>
</svg>
