<?xml version="1.0" encoding="utf-8"?>
<!-- Generator: Adobe Illustrator 19.2.0, SVG Export Plug-In . SVG Version: 6.00 Build 0)  -->
<svg version="1.1" id="レイヤー_1" xmlns="http://www.w3.org/2000/svg" xmlns:xlink="http://www.w3.org/1999/xlink" x="0px"
	 y="0px" viewBox="0 0 40 40" style="enable-background:new 0 0 40 40;" xml:space="preserve">
<style type="text/css">
	.st0{fill:#757575;}
</style>
<g>
	<path class="st0" d="M38.1,11.5l-6.2-5.7c-0.2-0.2-0.6-0.3-0.9-0.3H9c-0.3,0-0.6,0.1-0.9,0.3l-6.4,5.8c0,0-0.6,0.4-0.6,1.2v2.9
		c0,0.8,0.7,1.5,1.4,1.5h34.8c0.8,0,1.4-0.7,1.4-1.5v-2.9C38.8,12,38.1,11.5,38.1,11.5z"/>
	<path class="st0" d="M4.1,34.5c-0.8,0-1.5-0.7-1.5-1.5V15.6h4.3V33c0,0.8-0.7,1.5-1.4,1.5H4.1z"/>
	<path class="st0" d="M34.5,34.5c-0.8,0-1.5-0.7-1.5-1.5V15.6h4.4V33c0,0.8-0.7,1.5-1.5,1.5H34.5z"/>
	<path class="st0" d="M30.1,27.3c-0.8,0-1.4-0.7-1.4-1.5v-7.3h2.9v7.3C31.6,26.6,30.9,27.3,30.1,27.3L30.1,27.3z"/>
	<path class="st0" d="M9.9,27.3c-0.8,0-1.5-0.7-1.5-1.5v-7.3h2.9v7.3C11.3,26.6,10.6,27.3,9.9,27.3L9.9,27.3z"/>
</g>
</svg>
