<?xml version="1.0" encoding="utf-8"?>
<!-- Generator: Adobe Illustrator 23.0.3, SVG Export Plug-In . SVG Version: 6.00 Build 0)  -->
<svg version="1.1" xmlns="http://www.w3.org/2000/svg" xmlns:xlink="http://www.w3.org/1999/xlink" x="0px" y="0px"
	 viewBox="0 0 130 75" style="enable-background:new 0 0 130 75;" xml:space="preserve">
<style type="text/css">
	.st0{fill:#F18700;}
	.st1{fill:#221815;}
	.st2{fill:#E60012;}
	.st3{fill:#FFFFFF;}
</style>
<g id="レイヤー_2">
</g>
<g id="レイヤー_1">
	<g>
		<path class="st0" d="M12.41,44c-1.44,0.01-2.87,0.03-4.26,0.03c-2.62,0-4.03-0.03-6.54-0.06c-0.61,0-1.18-0.03-1.84-0.09
			c0,1.35,0.03,1.16,0.09,2.46c0.03,0.29,0.08,0.43,0.4,0.4c0.43-0.06,0.92-0.06,1.35-0.09c1.99-0.06,3.1-0.09,6.08-0.09h4.72v13.69
			H6.98c-2.34,0-3.42-0.03-5.73-0.03c-0.55,0-1.1-0.03-1.62-0.06c-0.03,1.3-0.06,1.04-0.03,2.3c0,0.29,0.11,0.4,0.43,0.38
			c0.54-0.03,1.1-0.03,1.67-0.03c3.8-0.03,6.48-0.05,10.71-0.08v1.81h10.81V43.84L12.41,44z"/>
		<path class="st0" d="M47.76,44c-1.44,0.01-2.87,0.03-4.26,0.03c-2.62,0-4.03-0.03-6.54-0.06c-0.61,0-1.18-0.03-1.84-0.09
			c0,1.35,0.03,1.16,0.09,2.46c0.03,0.29,0.08,0.43,0.4,0.4c0.43-0.06,0.92-0.06,1.35-0.09c1.99-0.06,3.1-0.09,6.08-0.09h4.72v13.69
			h-5.44c-2.34,0-3.42-0.03-5.73-0.03c-0.55,0-1.1-0.03-1.61-0.06c-0.03,1.3-0.06,1.04-0.03,2.3c0,0.29,0.11,0.4,0.43,0.38
			c0.55-0.03,1.1-0.03,1.67-0.03c3.8-0.03,6.48-0.05,10.71-0.08v1.81h10.81V43.84L47.76,44z"/>
		<path class="st0" d="M129.53,50.98c-0.63,0.06-1.23,0.09-1.89,0.09l-6.48,0.04v-5.02l3.22,0.02c0.57,0,1.17,0.03,1.74,0.09
			c-0.06-1.35-0.09-2.78-0.03-4.04c0.03-0.18-0.06-0.24-0.24-0.21c-0.81,0-1.47,0.18-2.31,0.18l-13.87-0.09
			c-0.45,0-1.02-0.18-1.41-0.18c-0.24-0.03-0.3,0.03-0.3,0.27l-0.03,4.07c0.54-0.03,1.08-0.06,1.61-0.06l2.66-0.03v5.02l-5.98-0.02
			c-0.42,0-0.93-0.03-1.35-0.09l0.09,2.97c0,0.3,0.09,0.39,0.42,0.39c0.63-0.03,1.23-0.09,1.86-0.09l4.96-0.07c0,0,0,3.4,0,5.86
			c0,3.25,1.16,4.11,3.25,4.36c0.5,0.06,1.5,0.13,1.65,0.13c1.56,0.06,3.3,0.12,5.57,0.12c1.65,0,4.02-0.11,5.34-0.17
			c0.36,0,0.45-0.09,0.45-0.48c0.03-1.08,0.15-2.37,0.42-3.57c-1.43,0.1-4.72,0.33-6.25,0.15c-1.04-0.12-1.46-0.43-1.46-2.21
			c0-1.17,0-4.23,0-4.23c2.81,0,5.41,0.02,7.98,0.06c0.33,0,0.45-0.12,0.45-0.48L129.53,50.98z"/>
		<path class="st0" d="M94.99,54.36c-0.08-1.35-0.08-1.88-0.03-3.21c-2.64,0.13-5.35,0.23-8.39,0.25v-5.23
			c1.61-0.35,3.2-0.77,4.56-1.18c0.49-0.14,0.84-0.26,1.1-0.31c0.11-0.03,0.2-0.15,0.2-0.26c0-0.06-0.03-0.12-0.09-0.17l-1.02-3.14
			c-0.55,0.26-2.07,0.67-2.71,0.87c-5.17,1.64-14.96,2.85-14.96,2.85s0.06,1.7,0.41,2.7c0.12,0.35,0.35,0.49,0.81,0.46
			c1.9-0.14,2.71-0.4,5.45-0.84l0.01,4.32c-3.31,0.06-5.2,0.05-7.89-0.01c-0.55,0-0.92-0.03-1.41-0.09l-0.06,2.92
			c-0.03,0.26,0.08,0.32,0.35,0.32c3.05-0.12,9.02-0.23,9.02-0.23s-0.02,1.59-0.02,3.48c0,3.33-0.72,3.83-2.11,4.39
			c-1.77,0.71-4.43,0.23-4.43,0.23l0.47,3.25c7.26,0,12.3-0.33,12.3-7.18v-4.2C89.56,54.34,92.3,54.29,94.99,54.36z"/>
	</g>
	<g>
		<g>
			<g>
				<path class="st1" d="M32.99,18.98c0.02,1.79-0.22,5.34-0.62,6.95h2.55v1.9H24.24v-1.9h6.02c0.36-2.24,0.41-3.08,0.48-5.05h-5.29
					v-1.9H32.99z"/>
				<rect x="36.51" y="22.26" class="st1" width="10.66" height="2.02"/>
				<polygon class="st1" points="52.46,18.02 54.45,17.88 54.65,19.75 58.53,19.35 58.68,21.16 54.83,21.56 55.01,23.34 
					59.26,22.94 59.41,24.75 55.19,25.16 55.54,28.59 53.54,28.73 53.2,25.36 48.85,25.78 48.68,23.95 53.02,23.53 52.83,21.77 
					49.09,22.14 48.93,20.33 52.65,19.96 				"/>
				<path class="st1" d="M62.79,20.11l1.76-0.18l0.29,1.9l4.76-0.63c0,1.03-0.05,3.43-2.39,5.1l-1.32-1.18
					c0.88-0.6,1.28-1,1.64-2.01l-2.45,0.35l0.79,5.21l-1.81,0.22l-0.75-5.16l-2.25,0.34l-0.25-1.72l2.26-0.29L62.79,20.11z"/>
				<path class="st1" d="M71.29,26.42c4.53-0.37,7.12-1.96,8.55-7.03l1.82,0.92c-1.91,6.4-5.69,7.61-9.74,8.19L71.29,26.42z
					 M74.92,22.11c-1.12-0.77-2.51-1.44-3.8-1.86l0.87-1.66c1.62,0.48,2.9,1.09,3.96,1.74L74.92,22.11"/>
			</g>
		</g>
		<g>
			<rect x="-0.41" y="13.26" class="st2" width="20.25" height="20.25"/>
			<path class="st3" d="M10.15,21.89l0-0.48H9.28l0.02,0.48c0,2.34-2.12,3.45-3.92,4.14l1.2,0.86c0.66-0.23,2.57-1.6,3.29-3.55
				c0.24,1.27,1.41,2.76,2.39,3.36c0.13,0.08,0.3,0.13,0.44,0.13c0.18,0,0.4-0.14,0.49-0.26c0.39-0.51,0.26-0.63,0.92-0.65
				l0.01-0.04C12.44,25.25,10.15,24.25,10.15,21.89"/>
			<path class="st3" d="M5.66,29.95c0,0.73-0.43,1.09-1.16,1.09c-0.73,0-1.15-0.35-1.15-1.09v-1.69h0.6v1.69
				c0,0.3,0.07,0.59,0.56,0.59c0.43,0,0.56-0.19,0.56-0.59v-1.69h0.6V29.95z"/>
			<rect x="6.37" y="29.47" class="st3" width="0.99" height="0.3"/>
			<path class="st3" d="M9.92,29.18c-0.04-0.27-0.3-0.48-0.59-0.48c-0.54,0-0.74,0.46-0.74,0.93c0,0.45,0.2,0.91,0.74,0.91
				c0.37,0,0.57-0.25,0.62-0.61h0.58c-0.06,0.68-0.53,1.11-1.19,1.11c-0.84,0-1.33-0.63-1.33-1.41c0-0.81,0.5-1.43,1.33-1.43
				c0.6,0,1.1,0.35,1.17,0.98H9.92z"/>
			<path class="st3" d="M11.76,29.93h0.7l-0.34-1h-0.01L11.76,29.93z M11.82,28.26h0.61l1.01,2.71h-0.62l-0.21-0.61h-1.02
				l-0.21,0.61h-0.6L11.82,28.26"/>
			<polygon class="st3" points="13.8,28.26 14.39,28.26 15.52,30.08 15.53,30.08 15.53,28.26 16.09,28.26 16.09,30.98 15.49,30.98 
				14.36,29.16 14.35,29.16 14.35,30.98 13.8,30.98 			"/>
			<path class="st3" d="M12.38,17.8c-0.52-0.53-1.46-0.78-1.84-0.92c-0.29-0.12-0.33-0.18-0.31-0.47c0-0.06,0.04-0.26,0.04-0.34
				c0.01-0.34-0.24-0.61-0.55-0.61c-0.31,0-0.57,0.26-0.55,0.61c0.01,0.09,0.04,0.28,0.04,0.34c0.02,0.29-0.02,0.35-0.31,0.47
				c-0.38,0.14-1.32,0.39-1.84,0.92c-0.42,0.44-0.71,1.09-0.86,2.48h0.1c0.2-0.48,0.44-0.84,0.67-1.07
				c0.64-0.64,1.82-0.86,2.06-0.96c0.21-0.11,0.23-0.15,0.22-0.38c0-0.03-0.03-0.21-0.03-0.25c-0.01-0.33,0.22-0.56,0.51-0.56
				c0.29,0,0.52,0.23,0.51,0.56c0,0.04-0.03,0.22-0.03,0.25c-0.01,0.22,0.02,0.27,0.22,0.38c0.23,0.1,1.42,0.32,2.06,0.96
				c0.23,0.23,0.46,0.59,0.66,1.07h0.1C13.08,18.89,12.8,18.25,12.38,17.8"/>
			<path class="st3" d="M12.09,20.52c-0.75-0.75-1.69-0.94-1.78-1c-0.13-0.09-0.15-0.12-0.14-0.29l0.02-0.17
				c0.01-0.33-0.19-0.53-0.47-0.53c-0.28,0-0.48,0.2-0.47,0.53l0.02,0.17c0.01,0.17-0.01,0.2-0.14,0.29c-0.09,0.06-1.03,0.25-1.78,1
				c-0.34,0.34-0.86,1.17-1.15,2l0.07,0.08c0.47-0.56,1.04-1.07,1.62-1.41c0.55-0.31,1.09-0.41,1.39-0.47
				c0.13-0.03,0.34-0.05,0.44-0.05c0.1,0,0.32,0.03,0.44,0.05c0.3,0.06,0.84,0.16,1.39,0.47c0.59,0.33,1.15,0.85,1.62,1.4l0.07-0.08
				C12.95,21.69,12.43,20.87,12.09,20.52"/>
		</g>
	</g>
</g>
</svg>
