<svg xmlns="http://www.w3.org/2000/svg" width="207.18" height="80.7" viewBox="0 0 207.18 80.7"><defs><style>.a{fill:#f39800;stroke:#f39800;stroke-width:0.57px;}.b{fill:#fff;}.c{fill:#414244;}</style></defs><title>logo</title><path class="a" d="M78.06,10.58a12.66,12.66,0,0,0,.74-4.15c-.28-3.19-1.06-5.54-2.32-6-4.29-1.46-1.23,6.65-2,6.12-3-2.15-7.41-3.36-12.32-3.36A58.69,58.69,0,0,0,41.58,7.39c-8.36,3.34-9,5.57-15.6,8.46a9.25,9.25,0,0,1-6.07.49c-1.56-.54-3.69-2-6.39-1.84l-.57,0c.29-.53,1.36-.84.94-2.55C13,8.24,7,9.2,7.85,14a2.4,2.4,0,0,0,1,1.55c-3,1.46-4.57,4.29-4.47,8a2.2,2.2,0,0,0-1.29-.26c-4.9.48-2.59,7.47,1.3,5.89a4.9,4.9,0,0,0,1.49-1.38A10.25,10.25,0,0,0,14,31.73a56.3,56.3,0,0,0,7.87-1.11c5.4-.81,8.49-.39,20.52,1C62.19,34,79,33.79,79,14.82A9.4,9.4,0,0,0,78.06,10.58Z"/><path class="b" d="M24,19.29a3.88,3.88,0,1,0,3.89,3.88A3.88,3.88,0,0,0,24,19.29Zm0,5a1.1,1.1,0,1,1,1.1-1.1A1.09,1.09,0,0,1,24,24.27Z"/><path class="b" d="M39.83,19.29a3.88,3.88,0,1,0,3.88,3.88A3.88,3.88,0,0,0,39.83,19.29Zm0,5a1.1,1.1,0,1,1,1.1-1.1A1.1,1.1,0,0,1,39.83,24.27Z"/><rect class="b" x="53.11" y="19.28" width="1.11" height="7.77"/><path class="b" d="M28.51,23.17a3.89,3.89,0,0,0,7,2.29l.09-.12-.79-.65-.1.14a2.88,2.88,0,1,1-.23-3.62l.1.11.78-.64-.11-.12a3.89,3.89,0,0,0-6.78,2.61Z"/><path class="b" d="M44.44,23.17a3.89,3.89,0,0,0,7,2.29l.09-.12-.79-.65-.1.14a2.88,2.88,0,1,1-.23-3.62l.1.11.78-.64-.11-.12a3.89,3.89,0,0,0-6.78,2.61Z"/><path class="b" d="M12.36,23.17a3.89,3.89,0,0,0,7,2.29l.09-.12-.79-.65-.1.14a2.88,2.88,0,1,1-.23-3.62l.1.11.78-.64-.11-.12a3.89,3.89,0,0,0-6.78,2.61Z"/><path class="b" d="M55.71,27.06V21.6a2.28,2.28,0,0,1,.61-1.65,2.1,2.1,0,0,1,1.6-.64,2,2,0,0,1,1.79,1.07,2.5,2.5,0,0,1,.82-.83,2.15,2.15,0,0,1,1.08-.25,1.93,1.93,0,0,1,1.56.64,2.82,2.82,0,0,1,.54,1.85v5.26H61.46V22.13a1.36,1.36,0,0,0-.06-.49.24.24,0,0,0-.23-.12c-.22,0-.33.19-.33.57v5H58.6V22.13a1.26,1.26,0,0,0-.06-.48.25.25,0,0,0-.24-.12c-.22,0-.34.2-.34.6v4.93Z"/><path class="b" d="M68.61,19.27a3.89,3.89,0,1,0,3.89,3.89A3.89,3.89,0,0,0,68.61,19.27Zm0,6.78a2.88,2.88,0,1,1,2.88-2.88A2.88,2.88,0,0,1,68.62,26.05Z"/><path class="a" d="M23.16,46.33c-2.26,0-4.49,0-6.68,0-4.12,0-6.32,0-10.25-.09-1,0-1.85,0-2.89-.13,0,2.12,0,1.82.14,3.86,0,.45.13.68.63.63.68-.1,1.45-.1,2.12-.14,3.13-.1,4.87-.13,9.53-.13h7.4V71.81H14.63c-3.67,0-5.37-.05-9-.05-.86,0-1.72,0-2.53-.09,0,2-.09,1.62,0,3.61,0,.45.18.63.67.59.86,0,1.72,0,2.62,0l16.79-.13v2.85h17V46.09Z"/><path class="a" d="M78.58,46.33c-2.26,0-4.5,0-6.68,0-4.12,0-6.32,0-10.25-.09-1,0-1.85,0-2.89-.13,0,2.12,0,1.82.13,3.86.05.45.13.68.63.63.68-.1,1.45-.1,2.13-.14,3.12-.1,4.86-.13,9.52-.13h7.4V71.81H70.06c-3.67,0-5.37-.05-9-.05-.86,0-1.72,0-2.53-.09,0,2-.09,1.62,0,3.61,0,.45.18.63.67.59.85,0,1.72,0,2.62,0l16.79-.13v2.85h17V46.09Z"/><path class="a" d="M206.81,57.28c-1,.09-1.94.14-3,.14l-10.17.06V49.61l5.05,0a25.23,25.23,0,0,1,2.72.15c-.09-2.12-.13-4.36,0-6.33,0-.28-.09-.37-.37-.32-1.27,0-2.29.28-3.62.28l-21.76-.14c-.72,0-1.61-.29-2.21-.29-.39,0-.49,0-.49.42l0,6.38c.84-.05,1.69-.1,2.53-.1l4.16-.06V57.5l-9.38,0a14.71,14.71,0,0,1-2.11-.14l.14,4.67c0,.47.15.61.66.61,1,0,1.93-.14,2.91-.14l7.78-.1v9.18c0,5.09,1.82,6.45,5.1,6.83.78.09,2.35.21,2.58.21,2.45.1,5.17.2,8.74.2,2.58,0,6.3-.16,8.37-.27.56,0,.71-.14.71-.75a29.58,29.58,0,0,1,.66-5.59,73.23,73.23,0,0,1-9.8.24c-1.64-.19-2.3-.67-2.3-3.45V62.32c4.41,0,8.48,0,12.52.09.52,0,.7-.19.7-.75Z"/><path class="a" d="M152.64,62.58a41.15,41.15,0,0,1-.05-5c-4.14.2-8.39.36-13.16.39v-8.2c2.52-.55,5-1.21,7.15-1.84.77-.23,1.31-.41,1.72-.49a.46.46,0,0,0,.32-.41.38.38,0,0,0-.15-.27l-1.59-4.93c-.86.41-3.25,1.06-4.25,1.37-8.1,2.57-23.45,4.48-23.45,4.48a18.83,18.83,0,0,0,.64,4.23c.18.54.55.77,1.27.72,3-.23,4.25-.63,8.55-1.31l0,6.77c-5.19.09-8.16.08-12.36,0a17.91,17.91,0,0,1-2.21-.13L115,62.49c0,.4.14.5.55.5,4.79-.18,14.15-.36,14.15-.36s0,2.49,0,5.45c0,5.2-1.13,6-3.3,6.88-2.77,1.11-6.94.37-6.94.37l.73,5.09c11.38,0,19.28-.53,19.28-11.25V62.58C144.12,62.55,148.42,62.46,152.64,62.58Z"/><path class="c" d="M85.89,19.89a7.19,7.19,0,0,0,3.29,2.59,1.68,1.68,0,0,0-.31.48,8.47,8.47,0,0,1-3.26-2.63,8.27,8.27,0,0,1-3.17,2.6,1.75,1.75,0,0,0-.31-.43,7.4,7.4,0,0,0,3.19-2.61Zm2.48,4a3.38,3.38,0,0,0-.31.34l-1.49,1.83c-.23.29-.37.48-.5.67l-.53-.31a5.24,5.24,0,0,0,.59-.61L87.6,24H83.89c-.28,0-.55,0-.87,0v-.55a7.83,7.83,0,0,0,.87,0h3.33a4.93,4.93,0,0,0,.84,0Zm-4.32-1.75a4,4,0,0,0,.59,0h2a4.61,4.61,0,0,0,.63,0v.52a5.06,5.06,0,0,0-.64,0H84.66a4.2,4.2,0,0,0-.6,0Z"/><path class="c" d="M92.74,20.1a5.23,5.23,0,0,0,0,1c0,.19,0,.19,0,.78a7.43,7.43,0,0,0,2.2-.28l.07.55-.18,0-.27,0a13.38,13.38,0,0,1-1.81.16c0,.76.07,1.56.1,1.93a6.65,6.65,0,0,1,2,1.06l.34.23-.35.52A6.12,6.12,0,0,0,93,24.88l-.18-.08a1.47,1.47,0,0,1,0,.32,1.28,1.28,0,0,1-.19.76,1.56,1.56,0,0,1-1.33.52c-1,0-1.57-.42-1.57-1.11s.7-1.18,1.76-1.18a3.21,3.21,0,0,1,.65.07h.08l0,0a.22.22,0,0,0,0-.07v0c-.08-1.13-.1-1.75-.12-3.38a3.56,3.56,0,0,0,0-.61Zm-1.2,4.47c-.76,0-1.23.27-1.23.7a.45.45,0,0,0,.11.32,1.2,1.2,0,0,0,.9.3,1.26,1.26,0,0,0,.83-.25.69.69,0,0,0,.18-.55,4.08,4.08,0,0,0,0-.42A2.55,2.55,0,0,0,91.54,24.57Z"/><path class="c" d="M98.1,20.13a9.33,9.33,0,0,0-.31,1.77c-.06.45-.09.67-.1,1h0l0-.08,0-.14a3.35,3.35,0,0,1,.46-1.12,1.79,1.79,0,0,1,1.48-1c1,0,1.66,1,1.66,2.41a3.15,3.15,0,0,1-1.2,2.69,4.64,4.64,0,0,1-1.87.77,1.56,1.56,0,0,0-.3-.51,4,4,0,0,0,1.52-.47A2.58,2.58,0,0,0,100.81,23c0-1.21-.42-1.9-1.14-1.9-.57,0-1,.43-1.48,1.3a3.88,3.88,0,0,0-.4,1.66,1.83,1.83,0,0,0,0,.19l-.55,0V23.08a17.87,17.87,0,0,1,.25-2.77c0-.13,0-.14,0-.24Z"/><path class="c" d="M103.47,23.11a5,5,0,0,0,1.34.3c0-.25.11-1,.17-1.35a9.89,9.89,0,0,1-1.12-.2l-.23-.05.07-.49a5,5,0,0,0,1.35.29,12.53,12.53,0,0,0,.18-1.41v-.06l.6.07a6.15,6.15,0,0,0-.21,1.06s0,.19-.06.37h.4a6.2,6.2,0,0,0,1.41-.13l0,.52h-.16l-.19,0-.18,0c-.22,0-.46,0-.69,0l-.64,0c-.12.86-.13.93-.17,1.36h.49a6.48,6.48,0,0,0,1.38-.12v.5l-.2,0a8.84,8.84,0,0,1-1.06.06l-.64,0V24a5.41,5.41,0,0,0,0,.55,1.11,1.11,0,0,0,.34.9,1.59,1.59,0,0,0,1.06.32c1,0,1.66-.52,1.66-1.31a1.69,1.69,0,0,0-.72-1.3,1.48,1.48,0,0,0,.55-.15,2,2,0,0,1,.71,1.49c0,1.06-.88,1.77-2.2,1.77a1.85,1.85,0,0,1-1.69-.75,1.88,1.88,0,0,1-.23-1,5.87,5.87,0,0,1,0-.64v-.07a8.56,8.56,0,0,1-1.13-.19.83.83,0,0,0-.23,0Z"/><path class="c" d="M110.61,23.09a3.37,3.37,0,0,0,.69-.14,9.72,9.72,0,0,1,2.29-.33,1.72,1.72,0,0,1,1.59.7,1.59,1.59,0,0,1,.23.84,2.19,2.19,0,0,1-1.71,2,6.9,6.9,0,0,1-1.54.28,1.49,1.49,0,0,0-.19-.52h.12a5,5,0,0,0,1.46-.23,1.71,1.71,0,0,0,1.37-1.52c0-.67-.48-1-1.35-1a8.45,8.45,0,0,0-2,.3,3.57,3.57,0,0,0-.8.25Z"/><path class="c" d="M119.13,20.14a14.19,14.19,0,0,0,.57,2.48c.41-.17.66-.26,1.81-.67l.48-.19.23.57a17.26,17.26,0,0,0-2.26.73c-1.28.51-1.83,1-1.83,1.63s.57.94,2,.94a7.46,7.46,0,0,0,2.15-.25l.06.62-.23,0-.32,0a15.27,15.27,0,0,1-1.66.1,5.07,5.07,0,0,1-1.66-.2,1.24,1.24,0,0,1-.93-1.23,1.62,1.62,0,0,1,.67-1.27,4.64,4.64,0,0,1,1-.61,15.2,15.2,0,0,1-.55-2.1,2.79,2.79,0,0,0-.13-.47Z"/><path class="c" d="M125.08,20.79c0-.55.09-.73.47-1l.2.25c-.3.14-.37.27-.36.72h.43v.74h-.75Zm1.18,0c0-.55.09-.73.47-1l.2.25c-.3.14-.37.27-.36.72H127v.74h-.75Z"/><path class="c" d="M127.41,25.21a7.21,7.21,0,0,0,1-3l.5.13a9.54,9.54,0,0,1-1,3.13Zm2.63.48c0,.23.17.28,1,.28s1.06-.06,1.15-.23a4.07,4.07,0,0,0,.2-1.53,1.79,1.79,0,0,0,.51.19,4.67,4.67,0,0,1-.28,1.62c-.18.35-.45.42-1.61.42s-1.5-.09-1.5-.64V22.21a5.12,5.12,0,0,0-.05-.71h.61a4.13,4.13,0,0,0-.05.7ZM132,21.51a9.76,9.76,0,0,0-2.43-1.21l.29-.41a12.2,12.2,0,0,1,2.47,1.18Zm1.94,3.78a11.05,11.05,0,0,0-1.24-2.89l.44-.23A12.88,12.88,0,0,1,134.41,25Z"/><path class="c" d="M136.3,20.82a6.08,6.08,0,0,0,0-.83h.55a6.21,6.21,0,0,0,0,.84v1.12H137a2.8,2.8,0,0,0,.6,0v.49a4.66,4.66,0,0,0-.61,0h-.2v2.35c.31-.15.46-.22.85-.43l0,.46a14.49,14.49,0,0,1-1.93.91l-.3.13-.13-.52a4.28,4.28,0,0,0,1-.34V22.37H136a2.83,2.83,0,0,0-.63,0V21.9a2.75,2.75,0,0,0,.63,0h.28Zm2.29,4.85c0,.19.08.27.31.31A8.54,8.54,0,0,0,140,26c1.06,0,1.36,0,1.48-.21a2.25,2.25,0,0,0,.16-1,1.32,1.32,0,0,0,.48.19c-.09,1.39-.22,1.48-2.17,1.48-1.55,0-1.86-.11-1.86-.7V23l-.17.05a3.38,3.38,0,0,0-.62.24l-.13-.51a2.83,2.83,0,0,0,.65-.15l.27-.09V21.39a5.38,5.38,0,0,0,0-.76h.56a5.28,5.28,0,0,0,0,.74v1l1.07-.36V20.67a4.69,4.69,0,0,0,0-.7h.55a4.94,4.94,0,0,0,0,.7v1.23l1.15-.38a6.07,6.07,0,0,0,.59-.23,21,21,0,0,1-.2,2.61c-.06.31-.14.43-.3.52a1.11,1.11,0,0,1-.45.08l-.38,0a2,2,0,0,0-.11-.47,2.65,2.65,0,0,0,.58.07c.17,0,.22-.05.25-.33s.07-.82.1-1.82l-1.24.43v2.07a4.87,4.87,0,0,0,0,.72h-.55a4.83,4.83,0,0,0,0-.73v-1.9l-1.07.36Z"/><path class="c" d="M144.12,20.83a5.14,5.14,0,0,0-.05.88,12.77,12.77,0,0,0,.2,2.34c.16.76.47,1.28.76,1.28s.26-.13.38-.37a5.42,5.42,0,0,0,.39-1.28,2.14,2.14,0,0,0,.44.43c-.37,1.32-.71,1.81-1.24,1.81s-.81-.41-1.06-1.14a11.26,11.26,0,0,1-.41-3.51,3.85,3.85,0,0,0,0-.44Zm3.62.4a7.07,7.07,0,0,1,1.63,3.71l-.53.22a6.63,6.63,0,0,0-1.56-3.69Z"/><path class="c" d="M151.36,20.83a5.14,5.14,0,0,0-.05.88,12.77,12.77,0,0,0,.2,2.34c.16.76.47,1.28.76,1.28s.26-.13.38-.37a5.42,5.42,0,0,0,.39-1.28,2.14,2.14,0,0,0,.44.43c-.37,1.32-.71,1.81-1.24,1.81s-.81-.41-1.06-1.14a11.26,11.26,0,0,1-.41-3.51,3.85,3.85,0,0,0,0-.44Zm3.62.4a7.07,7.07,0,0,1,1.63,3.71l-.53.22a6.63,6.63,0,0,0-1.56-3.69Z"/><path class="c" d="M158,20.56c0,.55-.09.73-.47,1l-.2-.25c.3-.14.37-.27.36-.72h-.43v-.74H158Zm1.18,0c0,.55-.09.73-.47,1l-.2-.25c.3-.14.37-.27.36-.72h-.43v-.74h.75Z"/><path class="c" d="M164,21.09a3.4,3.4,0,0,0,.36-1l.6.1a.46.46,0,0,0-.09.15l-.05.13-.05.13a3.34,3.34,0,0,1-.23.51h.16a10.59,10.59,0,0,0,2.36-.28l0,.51-.3,0a24.41,24.41,0,0,1-2.47.19,5.41,5.41,0,0,1-.93,1.35c-.07,0-.1.07-.1.1v0l.12-.1.29-.2a2,2,0,0,1,1.07-.33.92.92,0,0,1,1,.83l1.3-.49a1.57,1.57,0,0,0,.51-.22l.24.52a12.33,12.33,0,0,0-2,.66c0,.2,0,.31,0,.45s0,.24,0,.42,0,.27,0,.35a1.45,1.45,0,0,0,0,.25h-.51c0-.1,0-.68,0-1.23v-.08c-1,.48-1.41.83-1.41,1.28s.46.71,1.48.71a6.4,6.4,0,0,0,2-.29l.07.58-.3,0a11.52,11.52,0,0,1-1.82.15,3.16,3.16,0,0,1-1.5-.28,1,1,0,0,1-.49-.86c0-.67.58-1.23,1.88-1.8-.06-.41-.24-.59-.59-.59a2.79,2.79,0,0,0-1.67.79,2.47,2.47,0,0,0-.58.62l-.42-.42a7.64,7.64,0,0,0,1.68-2.14l0-.06,0-.05h-.14l-1.1,0h-.28V21a10.06,10.06,0,0,0,1.54.08H164Z"/><path class="c" d="M172.82,21.7l-.22,0c-.63.13-1,.19-1.33.22v1.3a5.31,5.31,0,0,1,1.61-.27,2.61,2.61,0,0,1,1.33.31,1.53,1.53,0,0,1,.77,1.33,1.52,1.52,0,0,1-1.53,1.55,1.11,1.11,0,0,1-1.15-.85,2.76,2.76,0,0,1-.09-.85,1.86,1.86,0,0,0,.5-.19,2.08,2.08,0,0,0,0,.29c0,.78.22,1.1.77,1.1a1,1,0,0,0,1-1.06c0-.73-.62-1.19-1.6-1.19a5.06,5.06,0,0,0-1.59.29v1.63c0,.43,0,.49-.07.61a.51.51,0,0,1-.47.23,2,2,0,0,1-1.24-.48.9.9,0,0,1-.34-.7,1.34,1.34,0,0,1,.59-1,4.13,4.13,0,0,1,1.06-.61V22h-1.48v-.49a4.21,4.21,0,0,0,.77.05l.71,0v-.74a4.94,4.94,0,0,0,0-.71h.55a4.24,4.24,0,0,0,0,.7v.72a7.37,7.37,0,0,0,1.53-.32Zm-2,2.21c-.74.36-1.16.76-1.16,1.12,0,.16.11.31.32.45a1.3,1.3,0,0,0,.67.22c.09,0,.13,0,.15-.1a.79.79,0,0,0,0-.26Zm4.11-1.41A6.24,6.24,0,0,0,173.39,21l.39-.29a6.46,6.46,0,0,1,1.51,1.42Z"/><path class="c" d="M177.41,21.94c0,2.43-.3,3.61-1,4.74a1.63,1.63,0,0,0-.38-.37c.73-1.14.94-2.29.94-5.21,0-.53,0-.72,0-1a6.88,6.88,0,0,0,.9,0h4a5.85,5.85,0,0,0,.78,0,5.79,5.79,0,0,0,0,.58v.74c0,.29,0,.42,0,.55l-.74,0Zm4.68-.43v-1h-4.67v1Zm-.5,1.45a5.79,5.79,0,0,0,.82,0c0,.29,0,.46,0,.79v2.21a5.16,5.16,0,0,0,0,.79h-.5v-.36H178.4v.36h-.5a6.3,6.3,0,0,0,0-.85V23.7c0-.27,0-.5,0-.77.29,0,.48,0,.84,0h1.15v-.12a4.76,4.76,0,0,0,0-.68h.55a4,4,0,0,0,0,.67V23Zm-3.19.4v1h1.51v-1Zm0,1.45v1.12h1.51V24.82Zm2-.4h1.57v-1h-1.57Zm0,1.53h1.57V24.82h-1.57Z"/><path class="c" d="M185.53,20.36a12.63,12.63,0,0,0-.46,3.27c0,.42,0,1,.06,1.22s0,.28,0,.4a8.44,8.44,0,0,1,.63-1.59l.38.18a6.54,6.54,0,0,0-.76,2.26l-.52,0a1.55,1.55,0,0,0-.06-.26,8.48,8.48,0,0,1-.28-2.22,14.82,14.82,0,0,1,.3-2.88c0-.22,0-.28.05-.34a1.07,1.07,0,0,0,0-.18Zm.76,1.51a5.79,5.79,0,0,0,1.25.1c.33,0,.59,0,1,0,0-1.28-.06-1.59-.09-1.75H189a1.73,1.73,0,0,0,0,.25c0,.07,0,.1,0,.22s0,.63,0,1.21a4,4,0,0,0,1.19-.31l0,.54a3.59,3.59,0,0,0-.4.09,6.6,6.6,0,0,1-.82.15c0,.2,0,.3,0,.55a5.56,5.56,0,0,1-.22,2,3,3,0,0,1-1.53,1.63,1.76,1.76,0,0,0-.41-.4,3,3,0,0,0,1.15-.86,3.25,3.25,0,0,0,.5-2.19c0-.26,0-.42,0-.64-.3,0-.76,0-1.09,0l-.91,0h-.24Z"/><path class="c" d="M195,21.08v-.52a3.19,3.19,0,0,0,0-.43h.57a5.75,5.75,0,0,0,0,1h1.74a4.13,4.13,0,0,0,.49,0v.53a11.08,11.08,0,0,0-1.24,0l-1,0v1.48a2.23,2.23,0,0,1,.17.88,2.42,2.42,0,0,1-1,2,4.63,4.63,0,0,1-1.18.61,1.51,1.51,0,0,0-.33-.47c1.36-.41,2-1.09,2.06-2.14a1.24,1.24,0,0,1-2.38-.41,1.25,1.25,0,0,1,1.33-1.24,1.14,1.14,0,0,1,.87.34c0-.12,0-.14,0-.41V22a1.7,1.7,0,0,1,0-.19v-.2c-1.18,0-3.28.13-3.52.19l0-.55h.3l1.42,0,1.81-.06Zm-1.67,2.4a.72.72,0,0,0,.78.74.83.83,0,0,0,.87-.88.52.52,0,0,0-.16-.42.9.9,0,0,0-.62-.23A.8.8,0,0,0,193.37,23.48Z"/><path class="c" d="M199.7,20.55a3.21,3.21,0,0,0,.68,0c.68,0,1.61,0,2.32-.1a.77.77,0,0,0,.36-.08l.31.41c-.1.05-.13.07-.38.31a19.73,19.73,0,0,1-2.46,2.13v0a3.8,3.8,0,0,1,1.84-.46c1.24,0,2.05.61,2.05,1.57,0,1.18-1.09,1.95-2.74,1.95-1.06,0-1.67-.39-1.67-1.06a1,1,0,0,1,1.09-.89,1.51,1.51,0,0,1,1.24.61,2.16,2.16,0,0,1,.34.72,2,2,0,0,0,.65-.28,1.24,1.24,0,0,0,.55-1c0-.72-.6-1.15-1.6-1.15a4.82,4.82,0,0,0-3.16,1.28l-.34-.48a29.12,29.12,0,0,0,3.55-3l.06-.06,0,0,0,0,0,0,0,0h-.07c-.34,0-1.17.1-2.28.13l-.4,0Zm1.41,4.26c-.37,0-.61.18-.61.46a.5.5,0,0,0,.3.46,1.9,1.9,0,0,0,.83.17,3.11,3.11,0,0,0,.55-.05C202,25.18,201.65,24.82,201.11,24.82Z"/></svg>